{"title":"Leonard.Cohen.Live.at.the.Isle.of.Wight.1970.Blu-ray.720p.XviD.M","uid":10075657,"size":2813932217,"categoryP":"video","categoryS":"hd___movies","magnet":"?xt=urn:btih:ec5fbc0a6c30a6fb53986a98aaa874962e9cd5d2&amp;dn=Leonard.Cohen.Live.at.the.Isle.of.Wight.1970.Blu-ray.720p.XviD.M&amp;tr=udp%3A%2F%2Ftracker.openbittorrent.com%3A80&amp;tr=udp%3A%2F%2Fopen.demonii.com%3A1337&amp;tr=udp%3A%2F%2Ftracker.coppersurfer.tk%3A6969&amp;tr=udp%3A%2F%2Fexodus.desync.com%3A6969","seeders":0,"leechers":1,"uploader":"user101966","files":2,"time":1398916979,"description":"Leonard Cohen (and ONLY Leonard Cohen) Live at the Isle of Wight in 1970.\n\nI am pleased to inform you that, for your viewing enjoyment, extraneous and useless, although often comic commentary by some of the usual media whores &quot;Bob Johnston&quot;, &quot;Judy Collins&quot;, &quot;Joan Baez (today)&quot; and of course the one and only &quot;Kris Kristofferson&quot; AKA &quot;Kris The Dish&quot; have been painstakingly exorcised from this video. Thus you may notice a few audio glitches here and there, but for the most part it is all quite fine.\n\nThat being the case, you will have to purchase the full version in order to witness such gems as Judy Collins in an apparent momentary lapse of sobriety taking full credit for Mr. Cohen's prowess as a performer. This is a MUST SEE!\n\nHowever, I must admit that the same Judy Collins voicing-over Suzanne was simply inexcusable. I had to resort to voice-removal software to remedy that abomination.\n\nIn other news:\n--------------\nLast I heard Kris (The Dish) was in hospital having torn a neck muscle while gallantly leaping in front of an active camera. His state is said to be &quot;stable&quot;.\n\n\nVideo details:\n--------------\nGeneral\nComplete name                            : Leonard.Cohen.Live.at.the.Isle.of.Wight.1970.Blu-ray.720p.XviD.Mp3.avi\nFormat                                   : AVI\nFormat/Info                              : Audio Video Interleave\nFormat profile                           : OpenDML\nFile size                                : 2.62 GiB\nDuration                                 : 58mn 36s\nOverall bit rate                         : 6 401 Kbps\nWriting library                          : VirtualDub build 32842/release\n\nVideo\nID                                       : 0\nFormat                                   : MPEG-4 Visual\nFormat profile                           : Simple@L3\nFormat settings, BVOP                    : No\nFormat settings, QPel                    : No\nFormat settings, GMC                     : No warppoints\nFormat settings, Matrix                  : Default (H.263)\nCodec ID                                 : XVID\nCodec ID/Hint                            : XviD\nDuration                                 : 58mn 36s\nBit rate                                 : 6 067 Kbps\nWidth                                    : 1 280 pixels\nHeight                                   : 720 pixels\nDisplay aspect ratio                     : 16:9\nFrame rate                               : 29.970 fps\nColor space                              : YUV\nChroma subsampling                       : 4:2:0\nBit depth                                : 8 bits\nScan type                                : Progressive\nCompression mode                         : Lossy\nBits/(Pixel*Frame)                       : 0.220\nStream size                              : 2.48 GiB (95%)\nWriting library                          : XviD 63\n\nAudio\nID                                       : 1\nFormat                                   : MPEG Audio\nFormat version                           : Version 1\nFormat profile                           : Layer 3\nMode                                     : Joint stereo\nMode extension                           : MS Stereo\nCodec ID                                 : 55\nCodec ID/Hint                            : MP3\nDuration                                 : 58mn 36s\nBit rate mode                            : Constant\nBit rate                                 : 320 Kbps\nChannel(s)                               : 2 channels\nSampling rate                            : 48.0 KHz\nCompression mode                         : Lossy\nStream size                              : 134 MiB (5%)\nAlignment                                : Split accross interleaves\nInterleave, duration                     : 33 ms (1.00 video frame)\nInterleave, preload duration             : 500 ms\nWriting library                          : LAME3.98.4\n","torrent":{"xt":"urn:btih:ec5fbc0a6c30a6fb53986a98aaa874962e9cd5d2","amp;dn":"Leonard.Cohen.Live.at.the.Isle.of.Wight.1970.Blu-ray.720p.XviD.M","amp;tr":["udp%3A%2F%2Ftracker.openbittorrent.com%3A80","udp%3A%2F%2Fopen.demonii.com%3A1337","udp%3A%2F%2Ftracker.coppersurfer.tk%3A6969","udp%3A%2F%2Fexodus.desync.com%3A6969"],"infoHash":"ec5fbc0a6c30a6fb53986a98aaa874962e9cd5d2","infoHashBuffer":{"type":"Buffer","data":[236,95,188,10,108,48,166,251,83,152,106,152,170,168,116,150,46,156,213,210]},"announce":[],"urlList":[]}}